 http://img846.imageshack.us/img846/1433/thecaretaker2012moviepo.jpg


General 
http://www.imdb.com/title/tt2140499/
Complete name                            : The.Caretaker.2012.WEBrip Xvid Ac3-ADTRG.avi
source                                   : WEBDL 720p [Thanks]
Format                                   : AVI
Format/Info                              : Audio Video Interleave
File size                                : 1.45 GiB
Duration                                 : 1h 36mn
Overall bit rate                         : 2 156 Kbps
Writing application                      : VirtualDubMod 1.5.10.2 (build 2540/release)
Writing library                          : VirtualDubMod build 2540/release

Video
ID                                       : 0
Format                                   : MPEG-4 Visual
Format profile                           : Advanced Simple@L5
Format settings, BVOP                    : 2
Format settings, QPel                    : No
Format settings, GMC                     : No warppoints
Format settings, Matrix                  : Default (H.263)
Muxing mode                              : Packed bitstream
Codec ID                                 : XVID
Codec ID/Hint                            : XviD
Duration                                 : 1h 36mn
Bit rate                                 : 1 698 Kbps
Width                                    : 720 pixels
Height                                   : 304 pixels
Display aspect ratio                     : 2.35:1
Frame rate                               : 25.000 fps
Color space                              : YUV
Chroma subsampling                       : 4:2:0
Bit depth                                : 8 bits
Scan type                                : Progressive
Compression mode                         : Lossy
Bits/(Pixel*Frame)                       : 0.310
Stream size                              : 1.14 GiB (79%)
Writing library                          : XviD 64

Audio
ID                                       : 1
Format                                   : AC-3
Format/Info                              : Audio Coding 3
Mode extension                           : CM (complete main)
Codec ID                                 : 2000
Duration                                 : 1h 36mn
Bit rate mode                            : Constant
Bit rate                                 : 448 Kbps
Channel(s)                               : 2 channels
Channel positions                        : Front: L R
Sampling rate                            : 48.0 KHz
Bit depth                                : 16 bits
Compression mode                         : Lossy
Stream size                              : 309 MiB (21%)
Alignment                                : Split accross interleaves
Interleave, duration                     : 40 ms (1.00 video frame)
Interleave, preload duration             : 500 ms


 
http://www.shotpix.com/images/25315636581803004864.jpeg 
http://www.shotpix.com/images/49026065111023132427.jpeg 
http://www.shotpix.com/images/02819576704843669246.jpeg 
http://www.shotpix.com/images/33132280517481203049.jpeg